<svg width="100" height="100" viewBox="0 0 100 100" fill="none" xmlns="http://www.w3.org/2000/svg">
<circle cx="50" cy="50" r="50" fill="#30A2E2"/>
<path d="M66.0156 43.75H59.375V35.9375C59.375 33.4511 58.3873 31.0665 56.6291 29.3084C54.871 27.5502 52.4864 26.5625 50 26.5625C47.5136 26.5625 45.129 27.5502 43.3709 29.3084C41.6127 31.0665 40.625 33.4511 40.625 35.9375V43.75H33.9844C33.6736 43.75 33.3755 43.8735 33.1557 44.0932C32.936 44.313 32.8125 44.6111 32.8125 44.9219V72.2656C32.8125 72.5764 32.936 72.8745 33.1557 73.0943C33.3755 73.314 33.6736 73.4375 33.9844 73.4375H66.0156C66.3264 73.4375 66.6245 73.314 66.8443 73.0943C67.064 72.8745 67.1875 72.5764 67.1875 72.2656V44.9219C67.1875 44.6111 67.064 44.313 66.8443 44.0932C66.6245 43.8735 66.3264 43.75 66.0156 43.75ZM55.6641 43.75H44.3359V35.8643C44.3359 34.3621 44.9327 32.9214 45.9949 31.8592C47.0571 30.7969 48.4978 30.2002 50 30.2002C51.5022 30.2002 52.9429 30.7969 54.0051 31.8592C55.0673 32.9214 55.6641 34.3621 55.6641 35.8643V43.75Z" fill="white"/>
</svg>
