<svg width="40" height="40" viewBox="0 0 40 40" fill="none" xmlns="http://www.w3.org/2000/svg">
<path d="M32.5926 0H7.40741C3.31641 0 0 3.31641 0 7.40741V32.5926C0 36.6836 3.31641 40 7.40741 40H32.5926C36.6836 40 40 36.6836 40 32.5926V7.40741C40 3.31641 36.6836 0 32.5926 0Z" fill="#30A2E2"/>
<path fill-rule="evenodd" clip-rule="evenodd" d="M31.1118 16.4339H26.9915C26.9301 14.4133 26.0278 12.4947 24.4764 11.0858C22.925 9.67686 20.8467 8.88867 18.6831 8.88867C16.5195 8.88867 14.4412 9.67686 12.8898 11.0858C11.3383 12.4947 10.4361 14.4133 10.3747 16.4339H10.3711V16.4617V16.554V16.6502C10.37 17.859 10.6715 19.0513 11.2514 20.1319C11.8314 21.2124 12.6737 22.1513 13.7112 22.8736C15.5594 24.3084 18.0287 25.185 20.7415 25.185C26.4692 25.185 31.1118 21.2796 31.1118 16.4617V16.4339ZM17.7785 27.4072C17.7785 28.6345 16.7835 29.6294 15.5563 29.6294C14.329 29.6294 13.3341 28.6345 13.3341 27.4072C13.3341 26.1799 14.329 25.185 15.5563 25.185C16.7835 25.185 17.7785 26.1799 17.7785 27.4072ZM28.8896 28.1479C30.1169 28.1479 31.1118 27.153 31.1118 25.9257C31.1118 24.6985 30.1169 23.7035 28.8896 23.7035C27.6624 23.7035 26.6674 24.6985 26.6674 25.9257C26.6674 27.153 27.6624 28.1479 28.8896 28.1479Z" fill="white"/>
<path d="M18.5165 13.333C17.5364 13.333 16.5961 13.6449 15.9018 14.2002C15.2075 14.7556 14.8158 15.5092 14.8125 16.296H22.2199C22.2169 15.5093 21.8254 14.7555 21.1312 14.2001C20.4369 13.6447 19.4968 13.3329 18.5165 13.333Z" fill="#30A2E2"/>
</svg>
